<svg xmlns="http://www.w3.org/2000/svg" width="46.357" height="46.357" viewBox="0 0 46.357 46.357">
  <g id="cricket" transform="translate(-0.001)">
    <path id="Path_56" data-name="Path 56" d="M425.863,427.786l4.8,4.8a1.358,1.358,0,0,0,1.921-1.921l-4.8-4.8h-1.921Z" transform="translate(-387.304 -387.307)" fill="#ff7a3c"/>
    <path id="Path_57" data-name="Path 57" d="M404.649,406.572l1.921,1.921,1.921-1.921-1.921-1.921h-1.921Z" transform="translate(-368.011 -368.014)" fill="#ff372b"/>
    <path id="Path_58" data-name="Path 58" d="M383.436,385.359l1.921,1.921,1.921-1.921-1.921-1.921h-1.921Z" transform="translate(-348.719 -348.721)" fill="#ffba48"/>
    <path id="Path_59" data-name="Path 59" d="M0,0H2.716V4.074H0Z" transform="translate(31.829 33.756) rotate(-45)" fill="#0ab84f"/>
    <path id="Path_60" data-name="Path 60" d="M36.721,65.009l-4.8,4.8-21.7-21.7L8.3,50.028a2.717,2.717,0,0,0,0,3.841l26.04,26.04a2.716,2.716,0,0,0,3.841,0L40.1,77.988l.466-9.137Z" transform="translate(-6.82 -43.751)" fill="#ffba48"/>
    <path id="Path_61" data-name="Path 61" d="M36.232,8.3a2.717,2.717,0,0,0-3.841,0l-2.881,2.881a2.717,2.717,0,0,0,0,3.841L49.292,34.8l6.722-6.722Z" transform="translate(-26.113 -6.823)" fill="#ffd185"/>
    <path id="Path_62" data-name="Path 62" d="M298.426,283.937l2.415,2.415a2.716,2.716,0,0,0,3.841,0l2.881-2.881a2.716,2.716,0,0,0,0-3.841l-2.415-2.415Z" transform="translate(-271.405 -252.116)" fill="#ffd185"/>
    <path id="Path_63" data-name="Path 63" d="M14.621,427.786l-4.8,4.8A1.358,1.358,0,0,1,7.9,430.667l4.8-4.8h1.921Z" transform="translate(-6.821 -387.307)" fill="#ff7a3c"/>
    <path id="Path_64" data-name="Path 64" d="M68.765,406.572l-1.921,1.921-1.921-1.921,1.921-1.921h1.921Z" transform="translate(-59.045 -368.014)" fill="#ff372b"/>
    <path id="Path_65" data-name="Path 65" d="M89.979,385.359l-1.921,1.921-1.921-1.921,1.921-1.921h1.921Z" transform="translate(-78.338 -348.721)" fill="#ffba48"/>
    <path id="Path_66" data-name="Path 66" d="M0,0H4.074V2.716H0Z" transform="translate(9.716 34.714) rotate(-45)" fill="#0ab84f"/>
    <path id="Path_67" data-name="Path 67" d="M176.275,50.028l-1.921-1.921L144.474,77.988l1.921,1.921a2.716,2.716,0,0,0,3.841,0l26.04-26.04A2.717,2.717,0,0,0,176.275,50.028Z" transform="translate(-131.392 -43.751)" fill="#ffd185"/>
    <path id="Path_68" data-name="Path 68" d="M137.424,11.178,134.543,8.3a2.717,2.717,0,0,0-3.841,0l-26.04,26.039a2.716,2.716,0,0,0,0,3.841l2.881,2.881a2.716,2.716,0,0,0,3.841,0l26.04-26.039A2.717,2.717,0,0,0,137.424,11.178Z" transform="translate(-94.461 -6.823)" fill="#ffe8c2"/>
    <ellipse id="Ellipse_49" data-name="Ellipse 49" cx="3.395" cy="3.395" rx="3.395" ry="3.395" transform="translate(19.784 0.679)" fill="#ff372b"/>
    <path id="Path_69" data-name="Path 69" d="M45.76,42.881,35.677,32.8l.96-.96a3.4,3.4,0,0,0,0-4.8L32.782,23.18,45.362,10.6a3.4,3.4,0,0,0,0-4.8L40.561,1a3.4,3.4,0,0,0-4.8,0L14.535,22.22,1.955,9.639a2.039,2.039,0,0,1,0-2.881l4.8-4.8a2.037,2.037,0,0,1,2.881,0L20.778,13.1a.679.679,0,1,0,.96-.96L10.6,1A3.4,3.4,0,0,0,5.8,1L.994,5.8a3.4,3.4,0,0,0,0,4.8L13.575,23.18,9.72,27.035a3.4,3.4,0,0,0,0,4.8l.96.96L.6,42.881a2.037,2.037,0,1,0,2.881,2.881L13.561,35.678l.96.96a3.4,3.4,0,0,0,4.8,0l3.855-3.855,3.855,3.855a3.4,3.4,0,0,0,4.8,0l.96-.96L42.879,45.762a2.037,2.037,0,1,0,2.881-2.881Zm-7.2-5.282.96.96-.96.96-.96-.96Zm-1.921,0-.96-.96.96-.96.96.96ZM8.76,36.639l.96-.96.96.96-.96.96Zm0,1.921-.96.96-.96-.96.96-.96ZM2.517,44.8a.679.679,0,1,1-.96-.96L5.879,39.52l.96.96Zm9.123-9.123-.96-.96.96-.96.96.96Zm6.722,0a2.037,2.037,0,0,1-2.881,0l-4.8-4.8a2.039,2.039,0,0,1,0-2.881L36.72,1.957a2.037,2.037,0,0,1,2.881,0l4.8,4.8a2.039,2.039,0,0,1,0,2.881Zm12.512,0a2.039,2.039,0,0,1-2.881,0l-3.855-3.855,7.683-7.683L35.677,28a2.039,2.039,0,0,1,0,2.881Zm3.841-1.921.96.96-.96.96-.96-.96ZM44.8,44.8a.679.679,0,0,1-.96,0L39.518,40.48l.96-.96L44.8,43.841a.679.679,0,0,1,0,.96Z" transform="translate(0.001 -0.002)"/>
    <path id="Path_70" data-name="Path 70" d="M215.076,8.15A4.074,4.074,0,1,0,211,4.075,4.079,4.079,0,0,0,215.076,8.15Zm0-6.791a2.716,2.716,0,1,1-2.716,2.716A2.719,2.719,0,0,1,215.076,1.359Z" transform="translate(-191.897 -0.001)"/>
  </g>
</svg>
