<svg xmlns="http://www.w3.org/2000/svg" width="22.5" height="24" viewBox="0 0 22.5 24">
  <g id="share_7_" data-name="share (7)" transform="translate(0)">
    <g id="Group_109" data-name="Group 109" transform="translate(0)">
      <path id="Path_75" data-name="Path 75" d="M34.281,15.562A4.2,4.2,0,0,0,30.9,17.285l-6.649-3.4a3.98,3.98,0,0,0-.124-2.754l6.958-4.187a4.2,4.2,0,1,0-1.021-2.72,4.18,4.18,0,0,0,.294,1.517l-6.979,4.2a4.212,4.212,0,1,0,.265,5.215l6.627,3.394a4.161,4.161,0,0,0-.207,1.238,4.219,4.219,0,1,0,4.219-4.219Z" transform="translate(-16)" fill="#b7b7b7"/>
    </g>
  </g>
</svg>
