<svg xmlns="http://www.w3.org/2000/svg" width="775" height="668.761" viewBox="0 0 775 668.761">
  <defs>
    <style>
      .cls-1 {
        isolation: isolate;
      }

      .cls-2 {
        fill: #ff9100;
      }
    </style>
  </defs>
  <g id="Group_329" data-name="Group 329" class="cls-1" transform="translate(-101.126 -174.809)">
    <g id="g14" transform="translate(334.497 379.291)">
      <g id="g16">
        <g id="g22">
          <g id="g24">
            <path id="path32" class="cls-2" d="M351.012,323.221c-13.376,7.2-29.624,8.636-43.788,12.014h0c1.339,2.961,6.59,2.8,11.168,2.643h0a34,34,0,0,1,5.267.054h0c-14.939,8.225-25.582,18.092-34.326,32.288h0c-5.311,3.909-7.961,10.608-11,16.384h0c-1.844,3.505-5.211,7.412-3.549,11.115h0c3.285-1.211,18.673-28.465,44.5-34.2h0a171.05,171.05,0,0,0-10.635,14.806h0a130.38,130.38,0,0,0-11.536,28.266h0c-3.242,11.115-4.116,22.963-5.882,31.378h0c-.643,3.037-3.011,6.145-1.722,9.411h0c2.466-.97,3.6-4.562,4.85-7.109h0c4.317-8.812,7.91-18.423,14.788-24.429h0c.046.512-.345.639-.407,1.068h0c-11.623,24.978-5.87,67.174.531,94.108h0c1.215-.561,1.01,2.47,2.235,3.4h0c-1.09-22.219-7.576-44.553-5.641-65.366h0c1.739-18.676,8.568-34.7,16.357-48.231h0c-4.941-.34-9.784,4.1-13.149,7.823h0c-5.11,5.648-8.279,14.179-12.833,18.086h0c5.272-27.208,20.075-51,38.019-66.568h0c2.47-2.142,21.161-8.789,18.894-16.035h0a5.182,5.182,0,0,1-3.217,2.848h0c-7.664,2.846-16.858,3.654-25.069,6.279h0c-10,3.2-17.77,8.646-25.117,11.944h0c6.405-11.287,19.46-19.162,26.8-28.038h0c14.557-2.139,24.662-8.225,31.586-17.133h0a4.276,4.276,0,0,0-1.3-.217h0c-2.393,0-3.806,2.324-5.819,3.4" transform="translate(-274.335 -319.818)"/>
          </g>
        </g>
      </g>
    </g>
    <g id="g34" transform="translate(218.313 397.353)">
      <g id="g36" transform="translate(0)">
        <g id="g42">
          <g id="g44">
            <path id="path52" class="cls-2" d="M242.118,340.237c-.806.08-9.29,2.682-12.98,3.695h0c-2.1.574-5.215,2.136-6.227,2.08h0c-.265-.014.043-1.142-.571-.981h0c-2.606.692-4.953,2.469-7.611,3.234h0c-7.688,2.2-16.851,3.59-22.343,9.645h0c-1.839.269-4.446-.142-4.274,1.911h0c1.968,2.239,6.287,1.1,8.909.776h0c7.831-.987,16.429-5.35,23.933-8.238h0c3.591-1.386,8.142-3.487,12.414-4.673h0c6.731-1.874,14.049-3.941,20.224-5.347h0a324.833,324.833,0,0,1,78.495-8.317h0a211.672,211.672,0,0,0-24.534-1.393h0c-22.266,0-43.887,3.262-65.434,7.61" transform="translate(-188.103 -332.627)"/>
          </g>
        </g>
      </g>
    </g>
    <g id="g54" transform="translate(158.052 430.06)">
      <g id="g56">
        <g id="g62">
          <g id="g64">
            <path id="path72" class="cls-2" d="M143.377,359.107c.175.722.876.794,1.1,1.451h0c2.092-1.468,5.092-2.141,6.024-4.635h0c-.651-.059-1.3-.1-1.937-.1h0c-2.326,0-4.4.594-5.185,3.286" transform="translate(-143.377 -355.821)"/>
          </g>
        </g>
      </g>
    </g>
    <g id="g74" transform="translate(201.593 426.471)">
      <g id="g76" transform="translate(0 0)">
        <g id="g82">
          <g id="g84">
            <path id="path92" class="cls-2" d="M175.693,357.425c.574.038.594.761.608,1.493h0a38.947,38.947,0,0,0,7.4.386h0c.639-2.283,3.661-2.458,4.031-4.976h0a7.325,7.325,0,0,0-3.98-1.052h0c-3.145,0-6.588,1.534-8.064,4.149" transform="translate(-175.693 -353.276)"/>
          </g>
        </g>
      </g>
    </g>
    <g id="g94" transform="translate(187.713 431.562)">
      <g id="g96">
        <g id="g102">
          <g id="g104">
            <path id="path112" class="cls-2" d="M165.391,360.744c1.28,4.8,6.781,3.091,11.024,2.651h0c.435-1.654-.865-1.176-1.136-1.963h0c.746-1.08,2.754-1.038,2.2-3.274h0a5.5,5.5,0,0,0-3.6-1.272h0c-3.2,0-6.574,2.323-8.488,3.858" transform="translate(-165.391 -356.886)"/>
          </g>
        </g>
      </g>
    </g>
    <g id="g114" transform="translate(175.987 441.183)">
      <g id="g116">
        <g id="g122">
          <g id="g124">
            <path id="path132" class="cls-2" d="M156.688,365.135c-.005,1.5,1.229,1.474,1.221,2.978h0c1.846-2.029,4.306-.591,5.129-3.529h0a2.434,2.434,0,0,0-2.1-.874h0a7.971,7.971,0,0,0-4.255,1.426" transform="translate(-156.688 -363.709)"/>
          </g>
        </g>
      </g>
    </g>
    <g id="g134" transform="translate(218.995 443.121)">
      <g id="g136" transform="translate(0 0)">
        <g id="g142">
          <g id="g144">
            <path id="path152" class="cls-2" d="M198.9,367.171c-.667.049-1.626.021-2.754-.008h0a36.118,36.118,0,0,0-7.541.382h0c.446,3,2.776,3.679,4.8,4.73h0c3.647-1.994,6.5-4.7,11.885-5.138h0c-1.074-1.853-3.5-2.034-6.06-2.053h0c-1.143.785.686,1.859-.326,2.088" transform="translate(-188.609 -365.083)"/>
          </g>
        </g>
      </g>
    </g>
    <g id="g154" transform="translate(204.627 448.709)">
      <g id="g156" transform="translate(0 0)">
        <g id="g162">
          <g id="g164">
            <path id="path172" class="cls-2" d="M177.945,370.765c1.187,4.361,4.969,3.661,8.215,4.435h0c1.28-2.351,3.81-3.587,4.93-6.083h0c-.631-.049-1.223-.07-1.793-.07h0c-4.256,0-6.979,1.2-11.351,1.719" transform="translate(-177.945 -369.046)"/>
          </g>
        </g>
      </g>
    </g>
    <g id="g174" transform="translate(233.676 450.398)">
      <g id="g176" transform="translate(0)">
        <g id="g182">
          <g id="g184">
            <path id="path192" class="cls-2" d="M200.44,370.254c-.486.044-.543.468-.935.6h0c.11,1.363.216,2.727.323,4.089h0c3.5,4.063,7.955,1.234,11.395,1.074h0c9.041-.417,18.161,2.191,26.809,3.348h0a248.884,248.884,0,0,1,47.553,10.816h0c7.738,2.587,15.486,5.442,23.146,6.752h0c-30.965-14.3-66-26.685-106.3-26.685h0c-.659,0-1.326.006-1.99.01" transform="translate(-199.505 -370.244)"/>
          </g>
        </g>
      </g>
    </g>
    <g id="g194" transform="translate(335.923 499.666)">
      <g id="g196">
        <g id="g202">
          <g id="g204">
            <path id="path212" class="cls-2" d="M275.805,405.292c.023.654-.573.763-.371,1.572h0c14.125,24.1,14.648,65.234,18.269,94.637h0c3.04-20.255,1.191-52.853-4.531-76.267h0c-1.552-6.361-7.218-20.054-12.552-20.052h0a3.013,3.013,0,0,0-.815.11" transform="translate(-275.393 -405.182)"/>
          </g>
        </g>
      </g>
    </g>
    <g id="g214" transform="translate(368.646 174.809)">
      <g id="g216">
        <g id="g222">
          <g id="g224">
            <path id="path232" class="cls-2" d="M396.709,217.216c-45.749,12.629-87.309,33.051-97.029,81.167h0c4.565-4.253,6.362-11.053,9.493-16.773h0c1.683-3.064,3.383-5.375,5.256-8.169h0c1.828-2.729,4.068-5.908,4.276-8.086h0c1.853-4.029,11.2-12.14,16.494-15.315h0c46.224-27.733,97.234-31.5,112.667-48.826h0c-2.645,6-9.352,10.622-14.541,15.146h0c-71.755,14.756-99.3,74.135-103.253,80.944h0c11.942-8.222,49.066-80.514,150.938-80.942h0c12.778-.055,29.128-.44,41.183-7.671h0c-7.623,11.479-28.031,8.943-39.441,17.3h0c19.227-4.579,48.741-5.824,68.446-11.05h0c-7.179,6.98-20.05,11.7-31.1,17.088h0c-10.315,5.034-24.895,5.759-37.723,7.885h0c-80.392,13.331-101.315,59.529-100.269,62.676h0c7.513-5.913,21.737-33.388,82.149-49.279h0c21.5-5.655,44.222-4.862,66.489-4.706h0c40.71.285,80.3,19.195,121.084,8.074h0c-16.471,11.4-30.905,15.55-52.347,22.008h0c-83.7-22.328-132.8,13.554-135.75,17.89h0c2.476.588,23.225-8.631,30.483-10.249h0c68.565-15.279,121.059,2.631,170.916,20.653h0A143.127,143.127,0,0,0,717,316.4h0c-19.97,15.682-50.092,25.951-80.057,25.941h0a247.415,247.415,0,0,0-59.141-20.62h0c-13.192-2.775-25.765-5.364-41.212-5.192h0c-3.111.035-6.439-.051-9.873-.137h0c-11.143-.278-23.379-.559-32.649,3.29h0c2.352,2.055,8.484,1.224,11.389,1.077h0c30.862-1.584,65.509,4.46,90.561,13.794h0c33.36,12.429,61.022,28.784,88.008,50.03h0c19.936,15.7,37.06,40.214,63.756,48.009h0a88.572,88.572,0,0,1-12.658,1.609h0c-11.058.474-23.55-.162-31.773-3.947h0c-6.608-3.044-52.9-37.463-55.667-38.931h0c2.832,6.038,64.862,53.186,92.177,71.8h0c-2.714,1.4-42.52-14.825-61.459-25.055h0c.142,2.256,13.758,14.373,18.783,19.994h0c12.9,14.414,23.247,33.336,32.06,51.257h0c13.39,27.223,25.1,61.814,41.92,82.821h0c-4.642-.437-16.257-9.083-19.076-11.215h0c-2.626-1.991-5.566-5.6-8.216-4.441h0c-.579,2.352,2.218,3.945,3.415,5.879h0c3.837,6.217,6.6,16.724,8.968,26.5h0c4.856,20.03,8,38.738,13.747,55.923h0c-5.643-6.347-9.95-13.689-15.815-19.731h0c-3.376-3.483-15.226-17.1-17.529-10.322h0c-.2,4.071,2.987,15.129,3.245,16.185h0c2.96,12.151,8.81,25.739,14.249,37.36h0c3.96,8.457,9.663,18.253,14.384,26.543h0c5.847,10.258,21.855,30.9,22.962,29.4h0c-5.958-7.66-10.92-18.333-16.132-23.82h0C766.43,702.284,752.81,675.1,748.7,650.155h0c15.591,12.048,22.151,28.861,35.589,44.157h0c2.452,1.66,5.958,8.991,6.808,11.552h0c.869-4.5-4.52-13.313-6.463-17.642h0c-1.767-3.946-3.142-7.448-3.368-11.546h0c-9.442-25.977-11.392-52.385-19.747-82.166h0a112.619,112.619,0,0,0,34.291,10.937h0c4.105.557,8.39,2.173,11.353.561h0a20.58,20.58,0,0,1-6.14-3.071h0c-38.978-35.3-57.146-94.557-86.63-138.647h0c16.06,7,46.157,13.45,62.273,5.844h0a71.119,71.119,0,0,1-26.863-6.616h0c-6.058-2.857-12.778-8.75-18.268-12.539h0c-6.019-4.154-12.2-7.646-17.2-12.409h0c10.229,4.1,51.9,13.371,76.459-9.172h0c1.334-1.22,3.631-2.153,4.6-4h0c-39.707,11.677-99.758-42.909-107.4-49.174h0c-4.682-3.843-8.868-7.2-10.179-8.079h0c-3.418-2.276-6.5-5.068-9.921-7.379h0c-7.333-4.955-16-8.036-22.734-13.986h0c7.565.928,14.926-.391,21.93-2.408h0c.945.33,14.45-1.973,21.284-4.408h0C716.616,329.9,736,305.647,760.391,293.1h0c-9.776-1.782-22.96,8.795-51.767,10.639h0c-30.284,1.939-45.631-6.3-54.31-9.2h0c-5.163-1.73-34.492-11-42.265-12.3h0c53.5-10.71,71.828-52.346,71.828-52.346h0c-7.437,7.4-11.778,9.6-11.778,9.6h0c-10.693,5.78-25.086,7.979-37.113,9.376h0c-8.989,1.048-28.208-2.025-50.217-5.095h0c-20.3-2.833-42.973-5.666-62.193-5.268h0c11.431-4.967,21.5-8.846,31.26-15.049h0c11.706-7.437,22.982-18.309,27.532-31.185h0c-14.081,14.828-44.752,20.52-59.139,23.109h0c9.123-7.664,17.529-13,21.5-26.551h0c-26.218,21.811-64.68,18.546-100.319,24.605h0a171.234,171.234,0,0,0,29.446-38.625h0c.005,0-34.3,31.674-76.152,42.407" transform="translate(-299.68 -174.809)"/>
          </g>
        </g>
      </g>
    </g>
    <g id="g234" transform="translate(101.126 180.52)">
      <g id="g236">
        <g id="g242">
          <g id="g244">
            <path id="path252" class="cls-2" d="M396.331,223.841c5.3-7.193,14.741-13.213,16.459-22h0c-8.934,9.122-21.116,15.6-30.982,24.8h0c-9.961,9.279-17.3,20.8-25.051,31.487h0c1.7-14.025,12.911-22.126,18.173-31.409h0c-18.149,10.073-27.662,27.031-29.6,29.823h0c-7.8,11.216-8.715,26.676-16.146,38.437h0c-5.949-8.348-1.377-17.359,1.975-24.863h0c-18.448,8.018-13.053,36.17-43.2,47.014h0c-4.871,1.753-10.575,4.848-15.468,7.251h0c-5.924,2.9-12.527,5.38-16.625,9.425h0c-2.319,2.286-10.162,13.525-11.842,15.864h0c-1.8,2.5-3.145,5.67-4.809,7.617h0c-2.5,2.915-5.775,2.479-9.392,2.042h0a24.719,24.719,0,0,0-5.707-.224h0c-13.394,1.481-25.263,13.793-43.426,16.607h0a27.133,27.133,0,0,1-4.752.169h0a32.182,32.182,0,0,0-4.562.121h0c-6.71.8-13.511,3.583-19.251,5.26h0c-13.135,3.837-21.311,8.692-32.767,14.66h0c-6.455,3.367-15,8.486-17.181,12.8h0c-4.182,8.3,5.274,16.159,9.543,21.3h0c1.56,11.842,7.295,9.311,9.555,8.952h0c3.57,3.878,2.348,7.826,3,13.117h0c2.4,19.487,9.193,28.7,22.428,35.108h0c3.419,7.667,2.331,20.934,5.265,29.389h0c3.451,9.936,8.88,20.259,13.892,26.585h0c-3.084-10.559-6-25.877-3.794-35.685h0c1.656-2.228,3.67-5.965,3.79-8.049h0c.379.956.775.441,1.179-.069h0c.241-.31.488-.616.737-.609h0a66.868,66.868,0,0,0,7.579,33.818h0c4.07,7.794,7.414,14,11.9,20.066h0c2.433,3.291,5.119,6.9,8.009,8.06h0c.239-4.2-3.754-5.717-3.9-12.016h0c-8.044-19.36-9.714-57.146,9.577-65.654h0c2.91,3.662,6.409,10.136,11.425,7.759h0c4.607,9.638,10.164,18.112,11.812,31.4h0c3.058.656,2.852-1.589,4.235-2.425h0c5.543,10.355,10.9,20.942,13.561,34.845h0a2.646,2.646,0,0,0,1.795.007h0a1.5,1.5,0,0,1,1.664.213h0c4.016,19.021,5.047,31.167,4.233,47.488h0c-4.419,1.364-14.489,11.37-15.717,12.674h0c-1.788.9-14.836,17.5-23.053,25.656h0c-5.124-9.193-5.75-26.317-4.771-35.6h0c-2.137,1.6-4.054,4.818-5.3,7.663h0c-6.95,15.912-6.983,41.733-2.894,56.841h0c-10.519-5.906-17.337-35.133-14.077-47.661h0c-6.951,4.455-10.226,18.563-9.995,29.16h0c.288,13.181,8.666,19.506,10.065,27.943h0c-1.6,17.524-11.051,30.965-3.049,48.629h0c3.213,7.1,15.543,16.464,15.645,23.863h0c.724-1.536.457.09.4,1.718h0c-.044,1.3.049,2.6.9,2.283h0c2.921-3.786,4.041-10.486,2.091-17.16h0c4.886,5.656,11.042,11.78,12.432,20.54h0c1.159,7.3-3.173,13.288-2.334,20.266h0c7.218-6.747,8.072-19.143,10.928-29.759h0c7.882,10.116,18.173,18.854,15.265,37.791h0c4.2-6.89,5.617-14.73,2.385-25.931h0c-2.037-7.057-8-12.928-6.574-21.045h0c1.626,5.092,6.5,6.172,10.939,7.8h0c.95,2.015,1.808,4.125,4.267,4.263h0c-2.1-6.2-6.063-10.082-7.269-17.378h0c5.951,3.35,13.065,7.479,21.155,6.409h0c3.327,3.738,6.667,7.468,11.993,8.734h0c.488-2.64-2.424-2.084-3.7-3.278h0c-6.4-6.01-9.065-20.268-6.851-30.795h0c.645,3.752,2.633,7.147,4.263,10.436h0c1.482,2.982,2.575,7.97,6.548,8.182h0c-2.478-11.559-1.941-27.352,1.005-37.135h0a23.285,23.285,0,0,0,5.16,9.329h0c2.074,2.438,4.681,5.939,7.358,6.056h0c-1.318-12.45,2.909-24.013,10.4-30.225h0c8.926,4.871,12.74,16.052,17.759,25.737h0c-3.922,10.3-7.809,19.821-7.838,31.552h0c-.055,24.985,12.359,53.351,9.418,75.851h0c-.895,6.831-3.457,18.4-5.311,26.183h0c2.9-4.5,6.733-16.418,7.013-17.072h0c7.7-18.088.752-53.271-2.013-75.462h0c.488-.519-.53-21.793,2.751-27.506h0a176.381,176.381,0,0,1,13.595,41.53h0c-.2-30.618-8.72-57.095-18.48-84.843h0c-11.874-33.737-6.291-71.618,3.545-104.753h0c-5.674,5.724-8.831,15.981-11.291,25.157h0c-2.835,10.56-5.272,26.254-5.524,35.981h0c-.337,12.882.811,25.158,2.53,38.37h0c-1.954-8.562-10.128-1.192-12.575,2.631h0c-4.766,7.433-7.258,21.763-9.546,28.6h0c-4.1-6.638-2.781-15.141-1.81-23h0c-4.271-1.386-5.187,4.663-6.275,7.74h0c-3.007,8.516-4.417,19.441-5.026,29.764h0c-1.148-5.889-4.527-12.523-5.887-18.528h0c-1.1-4.864-1.067-11.882-7.153-9.672h0c2.623,18.67-1.4,31.738,2.728,47.1h0c-7.538.656-12.44-6.682-15.167-11.553h0c-1.858-3.31-2.82-7.863-5.081-8.31h0c-3.866,5.471-.379,17.067-.14,23.167h0c-2.618-3.307-3.766-8.434-5.891-12.353h0a5.284,5.284,0,0,0-3.824,1.358h0c1.622,11.536,1.39,19.278,6.079,27.262h0c-8.723-7.491-13.289-22.63-15.715-37.237h0c-.977-5.875-.81-9.472-3.975-13.037h0c-2.5-.674-3.95.855-5.212,2.509h0c.48,3.71,1.382,10.817,1.9,11.672h0c2.327,11.219,8.4,22.314,5.137,34.031h0c-1.035-3.308-.777-6.518-1.7-9.115h0c-3.457-9.73-11.3-11.924-16.667-18.114h0c-1.927-2.221-1.629-5.288-4.47-6.818h0c-2.125,6.082,3.052,14.494,3.641,21.3h0c-8.9-9.5-16.6-34.911-8.3-49.192h0c1.776,1.028,5.172,1.612,6.955.945h0c9.923,4.709,21.055,4.768,33.119,2.287h0c4.881-3.5,8.869-8.461,13.4-10.93h0c7.462-12.525,11.019-24.911,19.883-34.649h0c.38,1.213,1.935.976,3.049,1.282h0c8.793-9.948,17.424-20.041,23.507-32.389h0c.485.711.544,1.946,2.075,1.365h0c1.3-4.548,5.22-6.777,6.475-11.36h0c-4.414-14.367-9.581-27.8-12.331-44.215h0c.354-1.863,1.812-4.091.086-5.154h0c-1.283-.822-1.783.183-2.249,1.186h0c-.455.981-.885,1.96-1.985,1.242h0c1.242-4.544-1.636-10.056-.639-14.357h0a2.8,2.8,0,0,0-2.158,1.31h0c-.724.849-1.3,1.7-2.078,1.116h0c-.7-6.027,1.8-10.649,1.235-15.544h0c-1.082-.822-1.323.1-1.712,1.011h0c-.294.691-.671,1.376-1.544,1.328h0c-5.5-9.06-2.965-25.818-10.024-33.6h0c-3.123,2.394-1.331,6.257-4.236,8.6h0c-.683-10.707-5.079-22.207-10.88-31.992h0c-5.923-9.991-11.465-19.68-21.35-15.138h0c-1.8-1.141-4.182-1.564-5.2-3.669h0c3.041-.9,6.551.071,8.22-1.736h0c-8.506-2.272-24.578-.97-32.917.267h0c4.161,5.518,15.719,1.9,20.663,6.449h0c-6.326,6.542-14.826,3.551-21.853,3.429h0c.463.963,2.677,2.63,2.2,2.9h0c-6.276.271-12.068-.058-15.95-2.741h0c-.492-1.839-2.4-4.858-4.188-3.239h0c-.888,2.217,2.829,3.941,3.085,7.966h0c-9.77-.729-14.5-6.481-20.659-12.625h0c-.631,2.8,2.009,3.41.893,5.069h0c-6.1,2.284-13.019.935-16.885-2.145h0c-7.4-5.889-8.162-19.581-13-27.694h0c-1.169,11.38,4.6,23.369,8.515,33.224h0c-10.38-4-9.735-21.623-13.925-33.272h0a17.111,17.111,0,0,0,2.239-2.764h0c-7.289-5.394-17.063-7.722-19.677-18.886h0c13.922-14.925,38.75-30.985,63.057-35.8h0a56.464,56.464,0,0,1,15.405-.646h0a55.378,55.378,0,0,0,11.082-.1h0c11.549-8.39,26.493-15.9,40.946-16.908h0c5.341-.372,10.494.385,14.082-2.246h0c5.357-3.922,7.427-17.4,13-22.217h0c24.943-21.6,61.738-23.376,68.338-31.108h0C346,294,351.016,263.477,352.568,261.053h0c-1.165,8.165-2.668,21.626,2.134,27.084h0c2.769-26.591,18.131-48.528,34.883-62.695h0c-4.89,7.957-12.91,21.207-11.785,31.373h0c11.07-14.1,22.068-28.27,40.434-35.9h0c1.134-.794.225-1.049.854-1.619h0c12.672-4.873,26.9-11.587,40.986-16.4h0c-12.942,14.4-30.366,17.913-43.109,26.873h0a124.2,124.2,0,0,0,18.72-5.729h0c11.966-4.982,23.4-12.306,30.78-21.177h0c2.922-3.511,4.636-7.909,7.453-11.449h0c3.026-3.793,7.478-6.879,8.352-12.553h0c-20.051,22.148-60.824,26.729-85.939,44.982M321.66,286.884c3.256,6.427,3.872,16.594-1.806,20.735h0c2.159-5.531,1.723-13.364,1.806-20.735M186.212,477.109c4.7.742,8.337,2.79,14.4,1.844h0c-2.018,3.555-8.215.848-10.988,4.034h0c.944-2.834-2.65-3.443-3.413-5.879m26.118.832c10.234-1,20.151.618,23.837,9.263h0c-.426.89-2.03.735-2.85,1.275h0c.244-1.176,1.268-2.686.206-3.62h0c-3.116.245-4.5,2.026-6.636,3.143h0c-4.7-5.171-10.868-11.524-17.53-4.143h0c-1.842-2.959-6.366-3.686-8.258-4.95h0c4.144-1.132,8.154-1.615,10.826.095h0c.752-.244-.5-.862.4-1.063m-55.869,8.424c4.6-3.714,11.783-1.381,15.183-6.972h0c6.889,1.746,8.622,1.175,16.555,4.233h0c-8.6,10.721-11.339,33.268-5.74,51.944h0c-3.879-4.929-8.426-16.155-9.984-26.922h0c-1.448-9.987.327-18.2.466-25.247h0c-3.309,1.025-2.9,5.349-3.75,8.554h0c-2.119-.63-2.89.417-6.347.549h0c-.408-2.864-.362-6.286-3.414-5.879h0c-.833,2.6-1.469,8.492.764,9.707h0c-1.1,7.414-3.378,15.806-3.639,22.441h0c-3.424-8.877-6.66-27.111-.094-32.408m115.621,113.51c1.2.385,4.21.235,3.091,1.788h0a1.3,1.3,0,0,0,1.6-.613h0a1.242,1.242,0,0,1,1.249-.659h0c-.764,4.9-7.557,8.481-9.736,13.7h0c-19.98,14.66-28.339,37.574-29.287,40.087h0c-1.677,4.434-6.151,11.967-9.294,19.326h0c-7.522-4.73-11.275-14.12-15.567-22.84h0c9.883-16.8,20.839-34.994,38.895-42.978h0c-4.08,5.277-11.054,9.09-12.873,17.576h0c8.847-8.153,18.574-19.645,31.921-25.386M207,678.55c-7.459-12.368-10.527-36.967-6.14-52.98h0c2.242,22.473,11.978,38.663,20.749,51.2h0a21.251,21.251,0,0,1-9.69,2.916h0A10.687,10.687,0,0,1,207,678.55m-27.428-42.4c3.548,14.126,7.1,28.239,14.737,37.322h0c-14.581-.54-17.734-23.2-14.737-37.322m14.442,46.09c2.646-1.379,5.481,1.831,8.5,1.848h0a8.865,8.865,0,0,1-2.862.471h0a7.332,7.332,0,0,1-5.643-2.318" transform="translate(-101.126 -178.859)"/>
          </g>
        </g>
      </g>
    </g>
    <g id="g254" transform="translate(185.184 331.997)">
      <g id="g256">
        <g id="g262">
          <g id="g264">
            <path id="path272" class="cls-2" d="M310,288.785a6.62,6.62,0,0,0-2.449.09h0c-12.622,3.068-68.607,31.342-91.619,47.644h0c-16.373-1.823-32.22,4.03-44.437,10.006h0c-2.885,1.411-6.211,2.259-7.979,4.807h0c.45,1.749,2.374,1.682,4.294,1.613h0a7.56,7.56,0,0,1,3.231.309h0c11.268-7.175,25.944-15.334,42.165-13.928h0c-1.343.557-25.318,15.837-14.1,20.768h0c1.44-.463,1.549-2.11,3.785-1.87h0a63.68,63.68,0,0,1,22.517-19.949h0c10.559-12.182,26-20.028,40.51-28.707h0c-2.156,3.793-5.548,6.488-7.536,10.427h0c.877,3.59,3.678,4.8,5.038,7.8h0c-1.073,2.378-1.164,5.622-1.8,8.389h0c-3.5-1.152-10.767-3.459-13.428-1.93h0c.07,2.554,4.045,2.573,5.086,2.133h0c7.258,2.389,12.265,4.505,20.255,7.515h0c2.48-4.793,7.968-7.351,14.007-9.441h0c8.011-2.772,16.539-1.963,24.982-1.125h0c-.814-3.3-4.576-2.953-7.647-3.456h0c-6.7-2.834-19.3-5.36-30.47-6.117h0c-1.5-2.079-5.016-1.658-6.668-3.542h0c-2.975-6.671,5.442-12.062,7.091-16.047h0c10.431-5.887,20.629-9.262,31.382-13.51h0c2.986-1.182,6.648-1.486,8.995-4.38h0c-2.3.329-4.334.905-5.211,2.506M270.3,327.71a3.49,3.49,0,0,0-.288,2.6h0c-.652.056-1.3.11-1.952.168h0q-.386-2.716,2.241-2.768h0m7,1.455c3.092,1.412,8.419.068,10.532,2.691h0a35.37,35.37,0,0,0-17.581,7.7h0c-2.3-.154-3.465-1.708-5.573-2.093h0c-.3-2.322.539-3.641,1.064-5.234h0a6.583,6.583,0,0,0,5.4,2.47h0c3.131,0,6.235-1.821,6.153-5.529" transform="translate(-163.514 -286.279)"/>
          </g>
        </g>
      </g>
    </g>
    <g id="g274" transform="translate(187.486 403.606)">
      <g id="g276">
        <g id="g282">
          <g id="g284">
            <path id="path292" class="cls-2" d="M179.1,342.486c-4.554-1.135-11.326-.4-13.879,4.8h0c4.8,6.567,11.82-1.369,14.856-4.883h0c3.712,3.009,9.712-2.682,12.375-5.184h0a12.371,12.371,0,0,0-1.991-.155h0c-4.96,0-10.732,2.62-11.361,5.425" transform="translate(-165.223 -337.061)"/>
          </g>
        </g>
      </g>
    </g>
    <g id="g294" transform="translate(333.149 538.016)">
      <g id="g296" transform="translate(0 0)">
        <g id="g302">
          <g id="g304">
            <path id="path312" class="cls-2" d="M284.064,465c.787,18.423-1.174,36.91-5.736,51.951h0c.64,7.309-3.8,10.879-4.454,18.387h0c.059.85-.928,1.709-.367,1.581h0c8.564-13.038,12.719-31.983,14.321-49.087h0c1.283-13.674,1.149-28.892-1.877-42.546h0c-.958-4.342-1.2-10.419-5.441-12.91h0c.628,10.388,3.059,21.005,3.553,32.625" transform="translate(-273.334 -432.378)"/>
          </g>
        </g>
      </g>
    </g>
    <g id="g314" transform="translate(372.871 326.204)">
      <g id="g316">
        <g id="g322">
          <g id="g324">
            <path id="path332" class="cls-2" d="M347.429,287.695a171.134,171.134,0,0,0-15.329,8.89h0c-2.635,1.739-12.523,9.132-16.871,14.063h0c-9.181,10.407-13,8.382-12.339,10.733h0a6.616,6.616,0,0,0,4.6,2.177h0c7.777.794,12.711-2.788,16.157-7.055h0c8.612-10.658,24.018-23.611,37.088-28.41h0c12.08-4.436,23.185-2.241,34.445-.045h0c6.642,1.293,13.339,2.589,20.319,2.518h0c-10.061-4.985-25.093-8.395-39.783-8.395h0c-10.183,0-20.2,1.639-28.283,5.524" transform="translate(-302.816 -282.171)"/>
          </g>
        </g>
      </g>
    </g>
    <g id="g334" transform="translate(119.466 395.032)">
      <g id="g336">
        <g id="g342">
          <g id="g344">
            <path id="path352" class="cls-2" d="M151.6,341.148c-9.585,1.622-39.748,8.039-36.637,21.682h0c.772,3.393,8.331,7.479,12.852,7.124h0c5.876-10.627,8.561-24.092,26.1-24.375h0c1.3-6.136,5.76-9.466,9.245-13.661h0c-.644.049-.516-.857-1.058-.936h0c-2.7,3.939-9.553,6.2-10.505,10.167" transform="translate(-114.738 -330.981)"/>
          </g>
        </g>
      </g>
    </g>
    <g id="g354" transform="translate(168.562 416.418)">
      <g id="g356" transform="translate(0 0)">
        <g id="g362">
          <g id="g364">
            <path id="path372" class="cls-2" d="M151.177,352.909c5.861,4.707,15.194-.185,15.222-6.457h0a3.527,3.527,0,0,0-1.563-.3h0c-3.763,0-10.562,3.617-13.659,6.762" transform="translate(-151.177 -346.147)"/>
          </g>
        </g>
      </g>
    </g>
    <g id="g374" transform="translate(249.49 468.396)">
      <g id="g376" transform="translate(0 0)">
        <g id="g382">
          <g id="g384">
            <path id="path392" class="cls-2" d="M211.242,385.349c2.4,1.741,7.185,2.129,6.381,6.14h0c5.28,1.674,5.314,5.739,5.768,10.82h0c15,14.516,22.041,38.705,32.952,56.325h0c-.488.044-.616-.365-1.016-.43h0c2.462,2.442,3.5,6.141,5.974,7.2h0c-7.943-24.239-16.637-46.928-29.361-66.924h0q-.123-1.536-.241-3.065h0c-4.709-5.4-10.907-8.964-17.2-12.411h0c-1.576.343-3.12.721-3.254,2.342" transform="translate(-211.242 -383.007)"/>
          </g>
        </g>
      </g>
    </g>
  </g>
</svg>
