<svg xmlns="http://www.w3.org/2000/svg" width="22.501" height="18" viewBox="0 0 22.501 18">
  <g id="CSK_TV_Filled" data-name="CSK TV Filled" transform="translate(-38 -719)">
    <path id="Path_92" data-name="Path 92" d="M1.646,0H20.854A1.728,1.728,0,0,1,22.5,1.8V16.2A1.728,1.728,0,0,1,20.854,18H1.646A1.728,1.728,0,0,1,0,16.2V1.8A1.728,1.728,0,0,1,1.646,0Z" transform="translate(38 719)" fill="#fecc29"/>
    <path id="icons8-video-clip_1_" data-name="icons8-video-clip (1)" d="M18.075,15.823a.936.936,0,0,0-.479.139,1.024,1.024,0,0,0-.478.873V21.9a1.024,1.024,0,0,0,.478.873.933.933,0,0,0,.962.012l4.362-2.531a1.034,1.034,0,0,0,0-1.77l-4.362-2.531A.936.936,0,0,0,18.075,15.823Z" transform="translate(29.334 708.591)" fill="#fff"/>
  </g>
</svg>
