<svg xmlns="http://www.w3.org/2000/svg" width="40.496" height="40.496" viewBox="0 0 40.496 40.496">
  <g id="aeroplane" transform="matrix(0.719, 0.695, -0.695, 0.719, 19.895, 0)">
    <g id="Group_86" data-name="Group 86" transform="translate(0 0)">
      <path id="Path_52" data-name="Path 52" d="M27.768,19.765,16.706,8.7V3.8a5.414,5.414,0,0,0-.511-2.283l-.252-.477a1.789,1.789,0,0,0-3.235-.027l-.278.531a5.39,5.39,0,0,0-.5,2.256V8.7L.873,19.763A2.961,2.961,0,0,0,0,21.871v1.4a.6.6,0,0,0,.919.5l11.245-7.206c.111,1.805.261,3.312.445,5.147l.19,1.879-4.178,2.76a.6.6,0,0,0-.268.5v1.193a.6.6,0,0,0,.725.584l5.241-1.166,5.241,1.166a.595.595,0,0,0,.5-.117.6.6,0,0,0,.223-.467V26.85a.593.593,0,0,0-.268-.5L15.839,23.6l.19-1.885c.184-1.832.334-3.338.445-5.143l11.245,7.2a.6.6,0,0,0,.919-.5v-1.4A2.958,2.958,0,0,0,27.768,19.765Z" transform="translate(0 0)" fill="#fff"/>
    </g>
  </g>
</svg>
