<svg xmlns="http://www.w3.org/2000/svg" width="20.869" height="15.999" viewBox="0 0 20.869 15.999">
  <g id="Group_209" data-name="Group 209" transform="translate(-314.001 -714.001)">
    <g id="Group_167" data-name="Group 167" transform="translate(16)">
      <path id="Union_1" data-name="Union 1" d="M-16802.111-38a.89.89,0,0,1-.889-.89.892.892,0,0,1,.889-.89h19.1a.889.889,0,0,1,.885.89.886.886,0,0,1-.885.89Zm0-7.11A.892.892,0,0,1-16803-46a.89.89,0,0,1,.889-.89h19.1a.886.886,0,0,1,.885.89.889.889,0,0,1-.885.89Zm0-7.114a.89.89,0,0,1-.889-.89.889.889,0,0,1,.889-.886h19.1a.885.885,0,0,1,.885.886.886.886,0,0,1-.885.89Z" transform="translate(17101 768)" fill="#fecc29"/>
    </g>
  </g>
</svg>
