<svg xmlns="http://www.w3.org/2000/svg" width="20.873" height="16" viewBox="0 0 20.873 16">
  <g id="Group_209" data-name="Group 209" transform="translate(-312.999 -713.998)">
    <g id="Group_167" data-name="Group 167" transform="translate(16)">
      <path id="Union_1" data-name="Union 1" d="M-16803.111-38a.89.89,0,0,1-.891-.886.891.891,0,0,1,.891-.89h19.1a.887.887,0,0,1,.887.89.886.886,0,0,1-.887.886Zm0-7.11A.891.891,0,0,1-16804-46a.89.89,0,0,1,.891-.886h19.1a.886.886,0,0,1,.887.886.887.887,0,0,1-.887.89Zm0-7.11a.891.891,0,0,1-.891-.89.894.894,0,0,1,.891-.89h19.1a.889.889,0,0,1,.887.89.887.887,0,0,1-.887.89Z" transform="translate(17101 768)" fill="#92a3cd"/>
    </g>
  </g>
</svg>
