<svg id="Group_269" data-name="Group 269" xmlns="http://www.w3.org/2000/svg" width="22.501" height="18" viewBox="0 0 22.501 18">
  <g id="icons8-scoreboard" transform="translate(-4.721 -8.693)" fill="none">
    <path d="M15.948,12.688a.456.456,0,1,0,.456.456A.456.456,0,0,0,15.948,12.688Zm0,1.824a.456.456,0,1,0,.456.456A.456.456,0,0,0,15.948,14.512Zm-4.333.456A1.929,1.929,0,0,0,9.57,16.591a.57.57,0,1,0,1.126.175.811.811,0,0,1,.919-.657.841.841,0,0,1,.912.83c0,.473-.35.766-.912.766a1.922,1.922,0,0,0-2.053,2.167.57.57,0,0,0,.57.57H13.1a.57.57,0,0,0,0-1.14H10.779c.13-.369.42-.456.836-.456a1.919,1.919,0,0,0,2.053-1.906A1.969,1.969,0,0,0,11.615,14.968Zm8.666,0a2.055,2.055,0,0,0-2.053,2.053v1.368a2.053,2.053,0,0,0,4.105,0V17.021A2.055,2.055,0,0,0,20.281,14.968Zm-4.333,1.368a.456.456,0,1,0,.456.456A.456.456,0,0,0,15.948,16.336Zm4.333,0a.685.685,0,0,1,.684.684v1.368a.684.684,0,1,1-1.368,0V17.021A.685.685,0,0,1,20.281,16.336Zm-4.333,1.824a.456.456,0,1,0,.456.456A.456.456,0,0,0,15.948,18.161Zm0,1.824a.456.456,0,1,0,.456.456A.456.456,0,0,0,15.948,19.985Zm0,1.824a.456.456,0,1,0,.456.456A.456.456,0,0,0,15.948,21.81Z" stroke="none"/>
    <path d="M 15.948073387146 12.6875057220459 C 16.19997406005859 12.6875057220459 16.40418243408203 12.89170455932617 16.40418243408203 13.14361572265625 C 16.40418243408203 13.39551544189453 16.19997406005859 13.5997257232666 15.948073387146 13.5997257232666 C 15.6961727142334 13.5997257232666 15.49196434020996 13.39551544189453 15.49196434020996 13.14361572265625 C 15.49196434020996 12.89170455932617 15.6961727142334 12.6875057220459 15.948073387146 12.6875057220459 Z M 15.948073387146 14.5119457244873 C 16.19997406005859 14.5119457244873 16.40418243408203 14.71615409851074 16.40418243408203 14.96806526184082 C 16.40418243408203 15.2199649810791 16.19997406005859 15.42417526245117 15.948073387146 15.42417526245117 C 15.6961727142334 15.42417526245117 15.49196434020996 15.2199649810791 15.49196434020996 14.96806526184082 C 15.49196434020996 14.71615409851074 15.6961727142334 14.5119457244873 15.948073387146 14.5119457244873 Z M 11.61500358581543 14.96806526184082 C 12.78493309020996 14.96806526184082 13.66751289367676 15.81519508361816 13.66751289367676 16.9386043548584 C 13.66751289367676 18.04285430908203 12.8040943145752 18.84501457214355 11.61500358581543 18.84501457214355 C 11.19903373718262 18.84501457214355 10.90940284729004 18.9321346282959 10.77940368652344 19.30112457275391 L 13.09737396240234 19.30112457275391 C 13.41208267211914 19.30112457275391 13.66751289367676 19.55655479431152 13.66751289367676 19.87126541137695 C 13.66751289367676 20.18598556518555 13.41208267211914 20.44141387939453 13.09737396240234 20.44141387939453 L 10.13264274597168 20.44141387939453 C 9.817922592163086 20.44141387939453 9.562503814697266 20.18598556518555 9.562503814697266 19.87126541137695 C 9.562503814697266 18.49426460266113 10.31052398681641 17.70473480224609 11.61500358581543 17.70473480224609 C 12.17739295959473 17.70473480224609 12.5272331237793 17.41113471984863 12.5272331237793 16.9386043548584 C 12.5272331237793 16.36800575256348 12.05424308776855 16.10834503173828 11.61500358581543 16.10834503173828 C 11.24236297607422 16.10834503173828 10.77959442138672 16.22255516052246 10.69566345214844 16.76578521728516 C 10.64777565002441 17.07730484008789 10.35549163818359 17.28848838806152 10.04534339904785 17.24150466918945 C 9.734273910522461 17.1936149597168 9.521284103393555 16.90225410461426 9.569614410400391 16.59118461608887 C 9.721954345703125 15.60506439208984 10.52444267272949 14.96806526184082 11.61500358581543 14.96806526184082 Z M 20.28114318847656 14.96806526184082 C 21.41275405883789 14.96806526184082 22.33364486694336 15.88895416259766 22.33364486694336 17.02056503295898 L 22.33364486694336 18.3889045715332 C 22.33364486694336 19.52051544189453 21.41275405883789 20.44141387939453 20.28114318847656 20.44141387939453 C 19.1495246887207 20.44141387939453 18.22863388061523 19.52051544189453 18.22863388061523 18.3889045715332 L 18.22863388061523 17.02056503295898 C 18.22863388061523 15.88895416259766 19.1495246887207 14.96806526184082 20.28114318847656 14.96806526184082 Z M 20.28114318847656 19.07307434082031 C 20.65834426879883 19.07307434082031 20.96531295776367 18.76610565185547 20.96531295776367 18.3889045715332 L 20.96531295776367 17.02056503295898 C 20.96531295776367 16.64336395263672 20.65834426879883 16.33639526367188 20.28114318847656 16.33639526367188 C 19.90393447875977 16.33639526367188 19.59697341918945 16.64336395263672 19.59697341918945 17.02056503295898 L 19.59697341918945 18.3889045715332 C 19.59697341918945 18.76610565185547 19.90393447875977 19.07307434082031 20.28114318847656 19.07307434082031 Z M 15.948073387146 16.33639526367188 C 16.19997406005859 16.33639526367188 16.40418243408203 16.54060554504395 16.40418243408203 16.79251480102539 C 16.40418243408203 17.04441452026367 16.19997406005859 17.24862480163574 15.948073387146 17.24862480163574 C 15.6961727142334 17.24862480163574 15.49196434020996 17.04441452026367 15.49196434020996 16.79251480102539 C 15.49196434020996 16.54060554504395 15.6961727142334 16.33639526367188 15.948073387146 16.33639526367188 Z M 15.948073387146 18.16084480285645 C 16.19997406005859 18.16084480285645 16.40418243408203 18.36505508422852 16.40418243408203 18.61696434020996 C 16.40418243408203 18.86886405944824 16.19997406005859 19.07307434082031 15.948073387146 19.07307434082031 C 15.6961727142334 19.07307434082031 15.49196434020996 18.86886405944824 15.49196434020996 18.61696434020996 C 15.49196434020996 18.36505508422852 15.6961727142334 18.16084480285645 15.948073387146 18.16084480285645 Z M 15.948073387146 19.98529434204102 C 16.19997406005859 19.98529434204102 16.40418243408203 20.18950462341309 16.40418243408203 20.44141387939453 C 16.40418243408203 20.69331359863281 16.19997406005859 20.89752578735352 15.948073387146 20.89752578735352 C 15.6961727142334 20.89752578735352 15.49196434020996 20.69331359863281 15.49196434020996 20.44141387939453 C 15.49196434020996 20.18950462341309 15.6961727142334 19.98529434204102 15.948073387146 19.98529434204102 Z M 15.948073387146 21.80974578857422 C 16.19997406005859 21.80974578857422 16.40418243408203 22.01395416259766 16.40418243408203 22.26585388183594 C 16.40418243408203 22.51776504516602 16.19997406005859 22.72197341918945 15.948073387146 22.72197341918945 C 15.6961727142334 22.72197341918945 15.49196434020996 22.51776504516602 15.49196434020996 22.26585388183594 C 15.49196434020996 22.01395416259766 15.6961727142334 21.80974578857422 15.948073387146 21.80974578857422 Z" stroke="none" fill="#92a3cd"/>
  </g>
  <g id="Rectangle_295" data-name="Rectangle 295" fill="none" stroke="#92a3cd" stroke-width="1.5">
    <rect width="22.501" height="18" rx="3" stroke="none"/>
    <rect x="0.75" y="0.75" width="21.001" height="16.5" rx="2.25" fill="none"/>
  </g>
</svg>
