<svg xmlns="http://www.w3.org/2000/svg" width="22.501" height="18" viewBox="0 0 22.501 18">
  <g id="Group_206" data-name="Group 206" transform="translate(-38 -719)">
    <g id="Path_92" data-name="Path 92" transform="translate(38 719)" fill="none">
      <path d="M1.646,0H20.854A1.728,1.728,0,0,1,22.5,1.8V16.2A1.728,1.728,0,0,1,20.854,18H1.646A1.728,1.728,0,0,1,0,16.2V1.8A1.728,1.728,0,0,1,1.646,0Z" stroke="none"/>
      <path d="M 1.646383285522461 1.5 C 1.617414474487305 1.5 1.500003814697266 1.596490859985352 1.500003814697266 1.799999237060547 L 1.500003814697266 16.20000076293945 C 1.500003814697266 16.40350914001465 1.617414474487305 16.5 1.646383285522461 16.5 L 20.85422515869141 16.5 C 20.88319396972656 16.5 21.0006046295166 16.40350914001465 21.0006046295166 16.20000076293945 L 21.0006046295166 1.799999237060547 C 21.0006046295166 1.596490859985352 20.88319396972656 1.5 20.85422515869141 1.5 L 1.646383285522461 1.5 M 1.646383285522461 0 L 20.85422515869141 0 C 21.76349449157715 0 22.5006046295166 0.8058891296386719 22.5006046295166 1.799999237060547 L 22.5006046295166 16.20000076293945 C 22.5006046295166 17.19411087036133 21.76349449157715 18 20.85422515869141 18 L 1.646383285522461 18 C 0.7371139526367188 18 3.814697265625e-06 17.19411087036133 3.814697265625e-06 16.20000076293945 L 3.814697265625e-06 1.799999237060547 C 3.814697265625e-06 0.8058891296386719 0.7371139526367188 0 1.646383285522461 0 Z" stroke="none" fill="#92a3cd"/>
    </g>
    <path id="icons8-video-clip_1_" data-name="icons8-video-clip (1)" d="M18.075,15.823a.936.936,0,0,0-.479.139,1.024,1.024,0,0,0-.478.873V21.9a1.024,1.024,0,0,0,.478.873.933.933,0,0,0,.962.012l4.362-2.531a1.034,1.034,0,0,0,0-1.77l-4.362-2.531A.936.936,0,0,0,18.075,15.823Z" transform="translate(29.334 708.591)" fill="#92a3cd"/>
  </g>
</svg>
