<svg xmlns="http://www.w3.org/2000/svg" xmlns:xlink="http://www.w3.org/1999/xlink" width="51" height="50.984" viewBox="0 0 51 50.984">
  <defs>
    <filter id="icons8-community-grants" x="0" y="0" width="51" height="50.984" filterUnits="userSpaceOnUse">
      <feOffset input="SourceAlpha"/>
      <feGaussianBlur stdDeviation="6.5" result="blur"/>
      <feFlood flood-color="#001156" flood-opacity="0.129"/>
      <feComposite operator="in" in2="blur"/>
      <feComposite in="SourceGraphic"/>
    </filter>
  </defs>
  <g transform="matrix(1, 0, 0, 1, 0, 0)" filter="url(#icons8-community-grants)">
    <path id="icons8-community-grants-2" data-name="icons8-community-grants" d="M7.19,5A1.261,1.261,0,1,0,8.451,6.261,1.261,1.261,0,0,0,7.19,5Zm3.784,0a1.261,1.261,0,1,0,1.261,1.261A1.261,1.261,0,0,0,10.974,5Zm3.784,0A1.261,1.261,0,1,0,16.02,6.261,1.261,1.261,0,0,0,14.759,5ZM5.922,8.154a.948.948,0,0,0-.946,1.009c0,.038.006.076.009.117a1.253,1.253,0,0,0,.044.246,1.626,1.626,0,0,1,.583-.11h2.22c0-.019,0-.041-.006-.06,0-.044-.006-.092-.009-.139A1.9,1.9,0,0,1,8.07,8.154Zm3.784,0a.948.948,0,0,0-.946,1.009c0,.038.006.076.009.117a.935.935,0,0,0,.019.136h2.828c0-.019,0-.041-.006-.06,0-.044-.006-.092-.009-.139a1.9,1.9,0,0,1,.252-1.062Zm3.784,0a.948.948,0,0,0-.946,1.009c0,.038.006.076.009.117a.935.935,0,0,0,.019.136h3.762a1.626,1.626,0,0,1,.583.11,1.252,1.252,0,0,0,.044-.246c0-.041.006-.079.009-.117a.948.948,0,0,0-.946-1.009Zm-7.72,2.208a.8.8,0,0,0-.788.788V16.2a.8.8,0,0,0,.788.788H16.178a.8.8,0,0,0,.788-.788V11.15a.8.8,0,0,0-.788-.788H5.771Zm1.1.946h8.2a.946.946,0,0,0,.946.946v2.838a.946.946,0,0,0-.946.946h-8.2a.946.946,0,0,0-.946-.946V12.253A.946.946,0,0,0,6.875,11.307Zm4.1.631A1.661,1.661,0,0,0,9.4,13.672a1.661,1.661,0,0,0,1.577,1.734,1.661,1.661,0,0,0,1.577-1.734A1.661,1.661,0,0,0,10.974,11.938Zm0,.946a.808.808,0,0,1,0,1.577.808.808,0,0,1,0-1.577Zm-3.311.158a.631.631,0,1,0,.631.631A.631.631,0,0,0,7.663,13.042Zm6.623,0a.631.631,0,1,0,.631.631A.631.631,0,0,0,14.286,13.042Z" transform="translate(14.53 14.5)" fill="#25469b"/>
  </g>
</svg>
