<svg xmlns="http://www.w3.org/2000/svg" width="18" height="18" viewBox="0 0 18 18">
  <path id="icons8-shopping-bag" d="M13.526,2A4.171,4.171,0,0,0,9.291,5.512H8.315a2.074,2.074,0,0,0-2.12,1.771L5.011,17.819a1.89,1.89,0,0,0,.537,1.528A2.215,2.215,0,0,0,7.131,20H20.868a2.215,2.215,0,0,0,1.584-.653,1.888,1.888,0,0,0,.536-1.528L21.8,7.283a2.074,2.074,0,0,0-2.121-1.771h-.97a4.356,4.356,0,0,1,.022.439v.878h.947a.692.692,0,0,1,.707.591l1.184,10.537a.628.628,0,0,1-.179.508.739.739,0,0,1-.528.218H7.131a.737.737,0,0,1-.527-.217.63.63,0,0,1-.179-.509L7.609,7.42a.692.692,0,0,1,.707-.591h.947V8.366a.713.713,0,0,0,1.421,0V5.951a2.734,2.734,0,0,1,2.842-2.634,2.774,2.774,0,0,1,2.8,2.2H11.694a1.606,1.606,0,0,0-.063.439v.878h4.737V8.366a.713.713,0,0,0,1.421,0V5.951A4.127,4.127,0,0,0,13.526,2Z" transform="translate(-4.999 -2)" fill="#92a3cd"/>
</svg>
