<svg xmlns="http://www.w3.org/2000/svg" xmlns:xlink="http://www.w3.org/1999/xlink" width="51" height="49.53" viewBox="0 0 51 49.53">
  <defs>
    <filter id="icons8-cash-in-hand" x="0" y="0" width="51" height="49.53" filterUnits="userSpaceOnUse">
      <feOffset input="SourceAlpha"/>
      <feGaussianBlur stdDeviation="6.5" result="blur"/>
      <feFlood flood-color="#001156" flood-opacity="0.129"/>
      <feComposite operator="in" in2="blur"/>
      <feComposite in="SourceGraphic"/>
    </filter>
  </defs>
  <g transform="matrix(1, 0, 0, 1, 0, 0)" filter="url(#icons8-cash-in-hand)">
    <path id="icons8-cash-in-hand-2" data-name="icons8-cash-in-hand" d="M9.563,6a.738.738,0,0,0-.731.731V7.96l-2.569.79A2.195,2.195,0,0,0,5.04,9.7l-1.993,3.24a.439.439,0,1,0,.747.459l1.993-3.239a1.316,1.316,0,0,1,.734-.568l2.31-.711v1.9L6.993,11.915a.439.439,0,1,0,.46.747l2.606-1.608.005,0a.465.465,0,0,1,.57.73h0L7.016,15.134l0,0a1.9,1.9,0,0,1-1.3.516H3.421a.439.439,0,1,0,0,.878h2.29a2.779,2.779,0,0,0,1.9-.752h0l1.219-1.129V15.8a.738.738,0,0,0,.731.731h4.68a.738.738,0,0,0,.731-.731V6.731A.738.738,0,0,0,14.243,6H9.563Zm1.024.878H13.22a.877.877,0,0,0,.878.878v7.02a.877.877,0,0,0-.878.878H10.587a.877.877,0,0,0-.878-.878v-.94l1.4-1.3a1.69,1.69,0,0,0,.79.193,1.534,1.534,0,0,0,1.59-1.463A1.534,1.534,0,0,0,11.9,9.8a1.658,1.658,0,0,0-1.092.4,1.355,1.355,0,0,0-.351-.091,1.341,1.341,0,0,0-.751.141v-2.5A.877.877,0,0,0,10.587,6.878Zm1.316.878a.585.585,0,1,0,.585.585A.585.585,0,0,0,11.9,7.755Zm0,2.925a.655.655,0,0,1,.713.585.655.655,0,0,1-.713.585.83.83,0,0,1-.3-.055,1.351,1.351,0,0,0-.119-1A.8.8,0,0,1,11.9,10.68Zm0,2.925a.585.585,0,1,0,.585.585A.585.585,0,0,0,11.9,13.605Z" transform="translate(16.53 13.5)" fill="#25469b"/>
  </g>
</svg>
