<svg xmlns="http://www.w3.org/2000/svg" xmlns:xlink="http://www.w3.org/1999/xlink" width="51" height="48.714" viewBox="0 0 51 48.714">
  <defs>
    <filter id="icons8-teams" x="0" y="0" width="51" height="48.714" filterUnits="userSpaceOnUse">
      <feOffset input="SourceAlpha"/>
      <feGaussianBlur stdDeviation="6.5" result="blur"/>
      <feFlood flood-color="#001156" flood-opacity="0.129"/>
      <feComposite operator="in" in2="blur"/>
      <feComposite in="SourceGraphic"/>
    </filter>
  </defs>
  <g transform="matrix(1, 0, 0, 1, 0, 0)" filter="url(#icons8-teams)">
    <path id="icons8-teams-2" data-name="icons8-teams" d="M6.027,7a5.872,5.872,0,0,0-1.858.3l-.876.292A.429.429,0,0,0,3,8.061l.286,2a.429.429,0,0,0,.424.368h1v4.143A.429.429,0,0,0,5.143,15H7v1.286a.429.429,0,0,0,.429.429h5.429a.429.429,0,0,0,.429-.429V12.143h1a.429.429,0,0,0,.424-.368l.286-2a.429.429,0,0,0-.289-.468l-.876-.292a5.792,5.792,0,0,0-1.22-.262l.1-.693a.429.429,0,0,0-.289-.468L11.546,7.3A5.877,5.877,0,0,0,9.688,7H9.064a.429.429,0,0,0-.4.285.85.85,0,0,1-1.606,0A.429.429,0,0,0,6.65,7Zm0,.857H6.4a1.667,1.667,0,0,0,2.915,0h.373a5.018,5.018,0,0,1,1.587.257l.536.179-.113.795-.069.483H10.572a.429.429,0,0,0-.429.429v4.143H5.572V10a.429.429,0,0,0-.429-.429H4.086L3.9,8.294l.537-.179A5.014,5.014,0,0,1,6.027,7.857Zm.905,1.714a.357.357,0,1,0,0,.714H8.225L7.18,12.49a.357.357,0,0,0,.646.306l1.286-2.714a.357.357,0,0,0-.323-.51Zm5.552.07a4.948,4.948,0,0,1,1.076.187l.536.179-.182,1.278H12.857a.429.429,0,0,0-.429.429v4.143H7.857V15h2.714A.429.429,0,0,0,11,14.572V10.429h1a.429.429,0,0,0,.424-.368Z" transform="translate(16.5 12.5)" fill="#25469b"/>
  </g>
</svg>
