<svg xmlns="http://www.w3.org/2000/svg" width="16.615" height="18" viewBox="0 0 16.615 18">
  <path id="icons8-home" d="M14.285,4a.692.692,0,0,0-.406.149L7.32,9.316A3.464,3.464,0,0,0,6,12.035v8.811A1.164,1.164,0,0,0,7.154,22h4.615a1.164,1.164,0,0,0,1.154-1.154V16.23A.22.22,0,0,1,13.154,16h2.308a.22.22,0,0,1,.231.231v4.615A1.164,1.164,0,0,0,16.846,22h4.615a1.164,1.164,0,0,0,1.154-1.154V12.035A3.464,3.464,0,0,0,21.3,9.316l-6.56-5.168A.692.692,0,0,0,14.285,4Zm.023,1.574L20.439,10.4a2.074,2.074,0,0,1,.791,1.631v8.58H17.077V16.23a1.626,1.626,0,0,0-1.615-1.615H13.154a1.626,1.626,0,0,0-1.615,1.615v4.385H7.385v-8.58A2.074,2.074,0,0,1,8.176,10.4Z" transform="translate(-6 -3.999)" fill="#92a3cd"/>
</svg>
