<svg xmlns="http://www.w3.org/2000/svg" width="16.615" height="18" viewBox="0 0 16.615 18">
  <path id="icons8-home_1_filled" data-name="icons8-home (1)filled" d="M21.462,22H17.308a1.154,1.154,0,0,1-1.154-1.154V16.692a.923.923,0,0,0-.923-.923H13.385a.923.923,0,0,0-.923.923v4.154A1.154,1.154,0,0,1,11.308,22H7.154A1.154,1.154,0,0,1,6,20.846V12.037a3.463,3.463,0,0,1,1.32-2.72l6.559-5.169a.694.694,0,0,1,.857,0L21.3,9.317a3.461,3.461,0,0,1,1.319,2.719v8.81A1.154,1.154,0,0,1,21.462,22Z" transform="translate(-6 -4)" fill="#fecc29"/>
</svg>
