<svg xmlns="http://www.w3.org/2000/svg" xmlns:xlink="http://www.w3.org/1999/xlink" width="264.42" height="63.9" viewBox="0 0 264.42 63.9">
  <defs>
    <linearGradient id="linear-gradient" x1="0.5" x2="0.5" y2="1" gradientUnits="objectBoundingBox">
      <stop offset="0" stop-color="#fff"/>
      <stop offset="1" stop-color="#fff" stop-opacity="0"/>
    </linearGradient>
  </defs>
  <path id="Path_93" data-name="Path 93" d="M43.83-32.4a14.7,14.7,0,0,1,8.82,5.445,15.461,15.461,0,0,1,3.33,9.765q0,7.92-5.535,12.555T35.01,0H5.58V-63.18H34.02q9.63,0,15.075,4.41A14.587,14.587,0,0,1,54.54-46.8a14.458,14.458,0,0,1-2.925,9.27A15.128,15.128,0,0,1,43.83-32.4ZM20.97-37.62H31.05a8.924,8.924,0,0,0,5.805-1.665A5.982,5.982,0,0,0,38.88-44.19a6.116,6.116,0,0,0-2.025-4.95,8.76,8.76,0,0,0-5.805-1.71H20.97Zm11.34,25.2A9.126,9.126,0,0,0,38.3-14.175,6.231,6.231,0,0,0,40.41-19.26a6.51,6.51,0,0,0-2.205-5.22,9.036,9.036,0,0,0-6.075-1.89H20.97v13.95ZM80.28-41.85a20.3,20.3,0,0,1,6.75-6.525,17.406,17.406,0,0,1,9-2.385v16.29H91.8q-5.76,0-8.64,2.475T80.28-23.31V0H64.89V-50.22H80.28ZM100.35-25.2a30.015,30.015,0,0,1,2.925-13.59,21.818,21.818,0,0,1,7.965-9,20.794,20.794,0,0,1,11.25-3.15,19.326,19.326,0,0,1,9.315,2.16,15.911,15.911,0,0,1,6.165,5.67v-7.11h15.39V0H137.97V-7.11a16.619,16.619,0,0,1-6.255,5.67A19.326,19.326,0,0,1,122.4.72a20.42,20.42,0,0,1-11.16-3.2,22.078,22.078,0,0,1-7.965-9.09A30.3,30.3,0,0,1,100.35-25.2Zm37.62.09q0-5.76-3.195-9.09a10.381,10.381,0,0,0-7.785-3.33,10.449,10.449,0,0,0-7.785,3.285Q116.01-30.96,116.01-25.2t3.195,9.135a10.315,10.315,0,0,0,7.785,3.375,10.381,10.381,0,0,0,7.785-3.33Q137.97-19.35,137.97-25.11ZM187.11-14.4,198-50.22h16.38L196.56,0H177.57L159.75-50.22h16.47ZM243.72.72a27.72,27.72,0,0,1-13.275-3.15,23.065,23.065,0,0,1-9.27-9A26.893,26.893,0,0,1,217.8-25.11a26.677,26.677,0,0,1,3.42-13.635,23.206,23.206,0,0,1,9.36-9.045,27.985,27.985,0,0,1,13.32-3.15,27.985,27.985,0,0,1,13.32,3.15,23.206,23.206,0,0,1,9.36,9.045A26.677,26.677,0,0,1,270-25.11a26.4,26.4,0,0,1-3.465,13.635,23.431,23.431,0,0,1-9.45,9.045A28.251,28.251,0,0,1,243.72.72Zm0-13.32a10.026,10.026,0,0,0,7.515-3.24q3.1-3.24,3.1-9.27t-3.015-9.27a9.743,9.743,0,0,0-7.425-3.24,9.767,9.767,0,0,0-7.47,3.195q-2.97,3.2-2.97,9.315,0,6.03,2.925,9.27A9.467,9.467,0,0,0,243.72-12.6Z" transform="translate(-5.58 63.18)" opacity="0.25" fill="url(#linear-gradient)"/>
</svg>
