<svg xmlns="http://www.w3.org/2000/svg" xmlns:xlink="http://www.w3.org/1999/xlink" width="348.03" height="90.45" viewBox="0 0 348.03 90.45">
  <defs>
    <linearGradient id="linear-gradient" x1="0.5" x2="0.5" y2="1" gradientUnits="objectBoundingBox">
      <stop offset="0" stop-color="#fff"/>
      <stop offset="1" stop-color="#fff" stop-opacity="0"/>
    </linearGradient>
  </defs>
  <path id="Path_94" data-name="Path 94" d="M37.8,0,24.66-23.85H20.97V0H5.58V-63.18H31.41a28.436,28.436,0,0,1,12.735,2.61,17.978,17.978,0,0,1,7.875,7.155A19.966,19.966,0,0,1,54.63-43.29a18.806,18.806,0,0,1-3.555,11.25A19.134,19.134,0,0,1,40.59-25.02L55.17,0ZM20.97-34.74h9.54q4.23,0,6.345-2.07a7.813,7.813,0,0,0,2.115-5.85,7.569,7.569,0,0,0-2.115-5.67Q34.74-50.4,30.51-50.4H20.97ZM61.2-25.2a30.015,30.015,0,0,1,2.925-13.59,21.818,21.818,0,0,1,7.965-9,20.794,20.794,0,0,1,11.25-3.15,19.326,19.326,0,0,1,9.315,2.16,15.911,15.911,0,0,1,6.165,5.67v-7.11h15.39V0H98.82V-7.11a16.619,16.619,0,0,1-6.255,5.67A19.326,19.326,0,0,1,83.25.72a20.42,20.42,0,0,1-11.16-3.2,22.078,22.078,0,0,1-7.965-9.09A30.3,30.3,0,0,1,61.2-25.2Zm37.62.09q0-5.76-3.195-9.09a10.381,10.381,0,0,0-7.785-3.33,10.449,10.449,0,0,0-7.785,3.285q-3.2,3.285-3.2,9.045t3.2,9.135A10.315,10.315,0,0,0,87.84-12.69a10.381,10.381,0,0,0,7.785-3.33Q98.82-19.35,98.82-25.11Zm77.85-25.11-31.5,74.07H128.61L140.13-1.71,119.7-50.22h17.19L148.5-18.81l11.52-31.41Zm55.17,0V0H216.45V-6.84a16.89,16.89,0,0,1-6.345,5.355A19.363,19.363,0,0,1,201.24.54a19.856,19.856,0,0,1-10.17-2.565,17.3,17.3,0,0,1-6.84-7.425,25.267,25.267,0,0,1-2.43-11.43V-50.22h15.3v27.27q0,5.04,2.61,7.83a9.152,9.152,0,0,0,7.02,2.79,9.264,9.264,0,0,0,7.11-2.79q2.61-2.79,2.61-7.83V-50.22Zm8.01,25.02a30.015,30.015,0,0,1,2.925-13.59,21.818,21.818,0,0,1,7.965-9,20.794,20.794,0,0,1,11.25-3.15,19.76,19.76,0,0,1,9.045,2.07,16.482,16.482,0,0,1,6.435,5.58V-66.6h15.39V0H277.47V-7.2a15.678,15.678,0,0,1-6.165,5.76A19.326,19.326,0,0,1,261.99.72a20.576,20.576,0,0,1-11.25-3.2,22.078,22.078,0,0,1-7.965-9.09A30.3,30.3,0,0,1,239.85-25.2Zm37.62.09q0-5.76-3.2-9.09a10.381,10.381,0,0,0-7.785-3.33,10.449,10.449,0,0,0-7.785,3.285q-3.2,3.285-3.2,9.045t3.2,9.135a10.315,10.315,0,0,0,7.785,3.375,10.381,10.381,0,0,0,7.785-3.33Q277.47-19.35,277.47-25.11Zm76.14-25.11V0H338.22V-6.84a16.89,16.89,0,0,1-6.345,5.355A19.363,19.363,0,0,1,323.01.54a19.856,19.856,0,0,1-10.17-2.565A17.294,17.294,0,0,1,306-9.45a25.267,25.267,0,0,1-2.43-11.43V-50.22h15.3v27.27q0,5.04,2.61,7.83a9.152,9.152,0,0,0,7.02,2.79,9.264,9.264,0,0,0,7.11-2.79q2.61-2.79,2.61-7.83V-50.22Z" transform="translate(-5.58 66.6)" opacity="0.25" fill="url(#linear-gradient)"/>
</svg>
