<svg xmlns="http://www.w3.org/2000/svg" xmlns:xlink="http://www.w3.org/1999/xlink" width="229.762" height="65.106" viewBox="0 0 229.762 65.106">
  <defs>
    <linearGradient id="linear-gradient" x1="0.5" y1="-0.3" x2="0.5" y2="1" gradientUnits="objectBoundingBox">
      <stop offset="0" stop-color="#fff"/>
      <stop offset="1" stop-color="#fff" stop-opacity="0"/>
    </linearGradient>
  </defs>
  <path id="Path_71" data-name="Path 71" d="M35.631-23.648,23.881-44.974h-3.3v21.326H6.82V-80.143h23.1A25.427,25.427,0,0,1,41.3-77.809a16.076,16.076,0,0,1,7.042,6.4,17.853,17.853,0,0,1,2.334,9.054A16.816,16.816,0,0,1,47.5-52.3a17.109,17.109,0,0,1-9.376,6.277L51.163-23.648ZM20.582-54.712h8.531q3.782,0,5.674-1.851a6.986,6.986,0,0,0,1.891-5.231,6.768,6.768,0,0,0-1.891-5.07q-1.891-1.851-5.674-1.851H20.582Zm35.973,8.531A26.839,26.839,0,0,1,59.17-58.333a19.509,19.509,0,0,1,7.122-8.048A18.594,18.594,0,0,1,76.352-69.2a17.281,17.281,0,0,1,8.329,1.931,14.228,14.228,0,0,1,5.513,5.07v-6.358h13.762v44.906H90.194v-6.358a14.861,14.861,0,0,1-5.593,5.07A17.281,17.281,0,0,1,76.272-23a18.26,18.26,0,0,1-9.979-2.857,19.742,19.742,0,0,1-7.122-8.128A27.093,27.093,0,0,1,56.555-46.181Zm33.639.08a11.251,11.251,0,0,0-2.857-8.128,9.282,9.282,0,0,0-6.961-2.978,9.343,9.343,0,0,0-6.961,2.937q-2.857,2.937-2.857,8.088a11.4,11.4,0,0,0,2.857,8.168A9.224,9.224,0,0,0,80.376-35a9.282,9.282,0,0,0,6.961-2.978A11.251,11.251,0,0,0,90.194-46.1Zm51.1-22.936q7.887,0,12.595,5.11T158.6-49.883v26.236H144.919V-48.032a9.855,9.855,0,0,0-2.334-7,8.183,8.183,0,0,0-6.277-2.495,8.183,8.183,0,0,0-6.277,2.495,9.855,9.855,0,0,0-2.334,7v24.385H113.935V-68.554H127.7V-62.6a14.518,14.518,0,0,1,5.633-4.708A17.909,17.909,0,0,1,141.3-69.037Zm33.8-4.185a8.341,8.341,0,0,1-5.915-2.133,6.911,6.911,0,0,1-2.294-5.271,7,7,0,0,1,2.294-5.352A8.341,8.341,0,0,1,175.1-88.11a8.231,8.231,0,0,1,5.835,2.133,7,7,0,0,1,2.294,5.352,6.91,6.91,0,0,1-2.294,5.271A8.231,8.231,0,0,1,175.1-73.222Zm6.841,4.668v44.906H168.177V-68.554Zm7.243,22.373A26.839,26.839,0,0,1,191.8-58.333a19.509,19.509,0,0,1,7.122-8.048,18.594,18.594,0,0,1,10.06-2.817,17.281,17.281,0,0,1,8.329,1.931,14.228,14.228,0,0,1,5.513,5.07v-6.358h13.762v44.906H222.821v-6.358a14.861,14.861,0,0,1-5.593,5.07A17.281,17.281,0,0,1,208.9-23a18.259,18.259,0,0,1-9.979-2.857,19.742,19.742,0,0,1-7.122-8.128A27.093,27.093,0,0,1,189.181-46.181Zm33.639.08a11.251,11.251,0,0,0-2.857-8.128A9.282,9.282,0,0,0,213-57.207a9.343,9.343,0,0,0-6.961,2.937q-2.857,2.937-2.857,8.088a11.4,11.4,0,0,0,2.857,8.168A9.224,9.224,0,0,0,213-35a9.282,9.282,0,0,0,6.961-2.978A11.251,11.251,0,0,0,222.821-46.1Z" transform="translate(-6.82 88.11)" opacity="0.25" fill="url(#linear-gradient)"/>
</svg>
