<svg xmlns="http://www.w3.org/2000/svg" xmlns:xlink="http://www.w3.org/1999/xlink" width="309.33" height="96.03" viewBox="0 0 309.33 96.03">
  <defs>
    <linearGradient id="linear-gradient" x1="0.5" x2="0.5" y2="1" gradientUnits="objectBoundingBox">
      <stop offset="0" stop-color="#fff"/>
      <stop offset="1" stop-color="#fff" stop-opacity="0"/>
    </linearGradient>
  </defs>
  <path id="Path_92" data-name="Path 92" d="M45.18-63.18v43.02q0,9.99-5.625,15.39T24.39.63Q14.4.63,8.37-5.04T2.34-21.15h15.3q0,3.96,1.62,5.985a5.641,5.641,0,0,0,4.68,2.025,5.359,5.359,0,0,0,4.32-1.8,7.853,7.853,0,0,0,1.53-5.22V-63.18ZM54.54-25.2a30.015,30.015,0,0,1,2.925-13.59,21.818,21.818,0,0,1,7.965-9,20.794,20.794,0,0,1,11.25-3.15A19.326,19.326,0,0,1,86-48.78a15.911,15.911,0,0,1,6.165,5.67v-7.11h15.39V0H92.16V-7.11A16.619,16.619,0,0,1,85.9-1.44,19.326,19.326,0,0,1,76.59.72a20.42,20.42,0,0,1-11.16-3.2,22.078,22.078,0,0,1-7.965-9.09A30.3,30.3,0,0,1,54.54-25.2Zm37.62.09q0-5.76-3.195-9.09a10.381,10.381,0,0,0-7.785-3.33A10.449,10.449,0,0,0,73.4-34.245Q70.2-30.96,70.2-25.2t3.2,9.135A10.315,10.315,0,0,0,81.18-12.69a10.381,10.381,0,0,0,7.785-3.33Q92.16-19.35,92.16-25.11Zm23.49-.09a30.015,30.015,0,0,1,2.925-13.59,21.818,21.818,0,0,1,7.965-9,20.794,20.794,0,0,1,11.25-3.15,19.76,19.76,0,0,1,9.045,2.07,16.482,16.482,0,0,1,6.435,5.58V-66.6h15.39V0H153.27V-7.2a15.678,15.678,0,0,1-6.165,5.76A19.326,19.326,0,0,1,137.79.72a20.576,20.576,0,0,1-11.25-3.2,22.078,22.078,0,0,1-7.965-9.09A30.3,30.3,0,0,1,115.65-25.2Zm37.62.09q0-5.76-3.195-9.09a10.381,10.381,0,0,0-7.785-3.33,10.449,10.449,0,0,0-7.785,3.285q-3.2,3.285-3.2,9.045t3.2,9.135a10.315,10.315,0,0,0,7.785,3.375,10.381,10.381,0,0,0,7.785-3.33Q153.27-19.35,153.27-25.11Zm73.89-.81a39.289,39.289,0,0,1-.27,4.5H192.06a10.465,10.465,0,0,0,3.015,7.155A9.211,9.211,0,0,0,201.6-11.79q5.76,0,8.01-4.86h16.38a22.477,22.477,0,0,1-4.545,8.91,22.755,22.755,0,0,1-8.235,6.21A26.451,26.451,0,0,1,202.14.72,26.937,26.937,0,0,1,189-2.43a22.406,22.406,0,0,1-9-9,27.785,27.785,0,0,1-3.24-13.68,28.1,28.1,0,0,1,3.195-13.68,22.115,22.115,0,0,1,8.955-9,27.127,27.127,0,0,1,13.23-3.15,26.855,26.855,0,0,1,12.96,3.06,21.972,21.972,0,0,1,8.865,8.73A26.5,26.5,0,0,1,227.16-25.92Zm-15.75-4.05a7.913,7.913,0,0,0-2.7-6.3,9.939,9.939,0,0,0-6.75-2.34,9.748,9.748,0,0,0-6.525,2.25,9.993,9.993,0,0,0-3.285,6.39Zm31.5-25.47a9.328,9.328,0,0,1-6.615-2.385,7.728,7.728,0,0,1-2.565-5.895,7.829,7.829,0,0,1,2.565-5.985,9.328,9.328,0,0,1,6.615-2.385,9.205,9.205,0,0,1,6.525,2.385A7.829,7.829,0,0,1,252-63.72a7.728,7.728,0,0,1-2.565,5.895A9.205,9.205,0,0,1,242.91-55.44Zm7.74,61.92q0,9.27-4.68,13.365T232.92,23.94h-6.03V10.89h3.69a5.272,5.272,0,0,0,3.6-.99,4.218,4.218,0,0,0,1.08-3.24V-50.22h15.39Zm8.01-31.68a30.014,30.014,0,0,1,2.925-13.59,21.818,21.818,0,0,1,7.965-9,20.794,20.794,0,0,1,11.25-3.15,19.326,19.326,0,0,1,9.315,2.16,15.911,15.911,0,0,1,6.165,5.67v-7.11h15.39V0H296.28V-7.11a16.619,16.619,0,0,1-6.255,5.67A19.326,19.326,0,0,1,280.71.72a20.42,20.42,0,0,1-11.16-3.2,22.078,22.078,0,0,1-7.965-9.09A30.3,30.3,0,0,1,258.66-25.2Zm37.62.09q0-5.76-3.2-9.09a10.381,10.381,0,0,0-7.785-3.33,10.449,10.449,0,0,0-7.785,3.285q-3.2,3.285-3.2,9.045t3.2,9.135A10.315,10.315,0,0,0,285.3-12.69a10.381,10.381,0,0,0,7.785-3.33Q296.28-19.35,296.28-25.11Z" transform="translate(-2.34 72.09)" opacity="0.25" fill="url(#linear-gradient)"/>
</svg>
