<svg xmlns="http://www.w3.org/2000/svg" width="18" height="18" viewBox="0 0 18 18">
  <path id="Store_-_Filled" data-name="Store - Filled" d="M13.526,2A4.171,4.171,0,0,0,9.291,5.512H8.315A2.074,2.074,0,0,0,6.2,7.283L5.011,17.819a1.891,1.891,0,0,0,.537,1.528A2.214,2.214,0,0,0,7.131,20H20.868a2.214,2.214,0,0,0,1.584-.653,1.889,1.889,0,0,0,.537-1.527L21.8,7.283a2.075,2.075,0,0,0-2.12-1.771h-.97a4.355,4.355,0,0,1,.022.439V8.585a.475.475,0,0,1-.947,0V5.951A4.127,4.127,0,0,0,13.526,2Zm0,1.317a2.774,2.774,0,0,1,2.8,2.2H11.694a1.607,1.607,0,0,0-.063.439V8.585a.475.475,0,0,1-.947,0V5.951A2.734,2.734,0,0,1,13.526,3.317Z" transform="translate(-5 -2)" fill="#fecb29"/>
</svg>
