<svg xmlns="http://www.w3.org/2000/svg" width="15.277" height="15.282" viewBox="0 0 15.277 15.282">
  <path id="Union_1" data-name="Union 1" d="M-16785.936-38.616l-6.123-6.122-6.121,6.122a.89.89,0,0,1-1.256,0,.884.884,0,0,1,0-1.256l6.121-6.122-6.121-6.122a.884.884,0,0,1,0-1.256.89.89,0,0,1,1.256,0l6.121,6.122,6.123-6.122a.882.882,0,0,1,1.256,0,.891.891,0,0,1,0,1.256l-6.121,6.122,6.121,6.122a.891.891,0,0,1,0,1.256.878.878,0,0,1-.627.262A.879.879,0,0,1-16785.936-38.616Z" transform="translate(16799.697 53.635)" fill="#fecc29"/>
</svg>
